<?xml version="1.0" standalone="no"?>
<!DOCTYPE svg PUBLIC "-//W3C//DTD SVG 20010904//EN"
 "http://www.w3.org/TR/2001/REC-SVG-20010904/DTD/svg10.dtd">
<svg version="1.0" xmlns="http://www.w3.org/2000/svg"
 width="1024.000000pt" height="1024.000000pt" viewBox="0 0 1024.000000 1024.000000"
 preserveAspectRatio="xMidYMid meet">

<g transform="translate(0.000000,1024.000000) scale(0.100000,-0.100000)"
fill="#000000" stroke="none">
<path d="M2672 8093 c37 -2 100 -2 140 0 40 1 10 3 -67 3 -77 0 -110 -1 -73
-3z"/>
<path d="M2898 8093 c7 -3 16 -2 19 1 4 3 -2 6 -13 5 -11 0 -14 -3 -6 -6z"/>
<path d="M3303 8093 c9 -2 25 -2 35 0 9 3 1 5 -18 5 -19 0 -27 -2 -17 -5z"/>
<path d="M3403 8093 c9 -2 23 -2 30 0 6 3 -1 5 -18 5 -16 0 -22 -2 -12 -5z"/>
<path d="M3488 8093 c7 -3 16 -2 19 1 4 3 -2 6 -13 5 -11 0 -14 -3 -6 -6z"/>
<path d="M5658 8093 c7 -3 16 -2 19 1 4 3 -2 6 -13 5 -11 0 -14 -3 -6 -6z"/>
<path d="M5852 8090 c188 -6 168 3 234 -102 80 -130 120 -293 179 -733 40
-297 56 -369 85 -385 32 -17 82 -11 176 20 196 67 332 91 519 91 206 1 372
-41 472 -117 l33 -25 -2 -1541 -3 -1541 -25 -18 c-56 -42 -266 -81 -550 -104
-91 -7 -184 -20 -208 -28 -95 -33 -170 -110 -197 -199 -8 -27 -23 -114 -35
-195 -56 -392 -115 -501 -314 -581 -37 -16 -197 -17 -1831 -22 l-1790 -5 1810
-2 c1004 -1 1841 2 1879 6 48 7 96 23 165 56 80 39 113 49 196 60 55 8 102 12
104 9 2 -2 -4 -4 -15 -4 -16 0 -17 -2 -4 -10 13 -9 13 -11 0 -19 -12 -9 -12
-11 2 -16 15 -6 14 -9 -4 -27 -11 -11 -34 -26 -51 -33 -18 -8 -25 -14 -17 -15
8 0 31 10 50 22 19 12 55 32 80 44 63 30 240 149 335 224 121 97 260 235 336
335 37 50 74 97 81 105 11 12 13 361 13 1815 l0 1800 -24 52 c-18 41 -65 93
-225 249 -110 108 -286 281 -391 384 -367 361 -452 431 -540 445 -39 6 -39 6
10 -12 87 -32 191 -122 606 -527 452 -440 525 -514 518 -520 -2 -2 -35 9 -74
25 -141 57 -234 74 -410 73 -172 -1 -287 -20 -474 -79 -68 -22 -85 -24 -92
-13 -5 7 -9 18 -9 23 -1 56 -65 508 -85 604 -37 176 -91 318 -151 398 l-24 32
67 4 c38 2 -76 3 -252 3 -235 0 -276 -2 -153 -6z m1684 -4506 c-23 -118 -496
-570 -788 -752 -67 -42 -209 -114 -214 -109 -1 1 15 37 36 80 48 100 66 171
95 384 26 188 45 248 93 282 56 40 96 49 252 61 240 17 408 48 489 90 40 20
46 15 37 -36z m-573 29 c-7 -2 -19 -2 -25 0 -7 3 -2 5 12 5 14 0 19 -2 13 -5z
m-116 -9 c-3 -3 -12 -4 -19 -1 -8 3 -5 6 6 6 11 1 17 -2 13 -5z m-87 -18 c0
-2 -7 -7 -16 -10 -8 -3 -12 -2 -9 4 6 10 25 14 25 6z m227 -42 c-3 -3 -12 -4
-19 -1 -8 3 -5 6 6 6 11 1 17 -2 13 -5z m-420 -226 c-3 -8 -6 -5 -6 6 -1 11 2
17 5 13 3 -3 4 -12 1 -19z m90 -70 c-3 -8 -6 -5 -6 6 -1 11 2 17 5 13 3 -3 4
-12 1 -19z"/>
<path d="M2543 8083 c9 -2 23 -2 30 0 6 3 -1 5 -18 5 -16 0 -22 -2 -12 -5z"/>
<path d="M2470 8059 c-68 -41 -121 -111 -119 -156 0 -10 4 -6 9 11 16 50 63
107 115 137 27 16 46 29 40 29 -5 0 -26 -10 -45 -21z"/>
<path d="M2342 7860 c0 -14 2 -19 5 -12 2 6 2 18 0 25 -3 6 -5 1 -5 -13z"/>
<path d="M2774 7628 c-19 -22 -19 -22 0 -8 17 13 219 16 1565 20 l1546 5
-1546 3 -1546 2 -19 -22z"/>
<path d="M5903 7623 c8 -10 17 -29 20 -43 4 -22 4 -22 6 6 1 29 -14 54 -33 54
-5 0 -2 -8 7 -17z"/>
<path d="M2752 7372 l-2 -233 25 -24 24 -25 1543 2 1543 3 -1547 5 c-1249 4
-1550 7 -1560 18 -10 10 -14 75 -18 250 l-6 237 -2 -233z"/>
<path d="M5900 7110 c-9 -6 -10 -10 -3 -10 6 0 15 5 18 10 8 12 4 12 -15 0z"/>
<path d="M7000 6656 c0 -2 11 -6 25 -8 13 -3 22 -1 19 3 -5 9 -44 13 -44 5z"/>
<path d="M6973 6593 c9 -2 23 -2 30 0 6 3 -1 5 -18 5 -16 0 -22 -2 -12 -5z"/>
<path d="M3365 6244 c-113 -29 -258 -81 -274 -98 -33 -36 -36 -69 -8 -102 22
-25 32 -29 74 -28 26 1 89 14 138 29 120 37 207 38 330 1 130 -39 201 -43 308
-17 114 27 156 26 242 -4 103 -36 226 -35 367 5 206 57 263 58 430 5 134 -43
205 -43 395 -1 207 46 279 47 438 6 138 -36 187 -37 382 -9 165 23 208 37 224
73 24 51 -15 82 -121 98 -59 9 -90 8 -172 -7 -111 -19 -175 -16 -273 14 -158
49 -274 48 -480 -6 -139 -37 -261 -37 -365 -1 -166 58 -263 59 -442 7 -68 -21
-135 -33 -198 -36 -84 -5 -105 -2 -178 21 -99 31 -152 32 -252 6 -103 -27
-155 -25 -262 10 -91 30 -249 48 -303 34z m53 -21 c-10 -2 -28 -2 -40 0 -13 2
-5 4 17 4 22 1 32 -1 23 -4z m125 0 c-7 -2 -21 -2 -30 0 -10 3 -4 5 12 5 17 0
24 -2 18 -5z m1452 -32 c102 -33 180 -41 275 -27 37 5 41 4 20 -5 -14 -6 -68
-11 -120 -11 -74 -1 -107 4 -150 20 -40 16 -57 19 -65 10 -7 -8 -6 -9 2 -4 6
3 14 2 17 -3 4 -5 -3 -12 -14 -16 -11 -3 -20 -12 -20 -18 0 -8 -4 -7 -9 2 -5
8 -7 21 -3 29 3 10 0 13 -9 10 -8 -3 -13 -14 -11 -24 2 -15 1 -16 -7 -4 -8 12
-13 12 -35 0 -14 -7 -26 -17 -26 -22 0 -5 5 -6 10 -3 6 3 10 1 10 -4 0 -6 -7
-11 -15 -11 -8 0 -15 5 -15 11 0 8 -6 7 -17 -2 -15 -13 -15 -12 -2 9 8 12 17
22 21 22 5 0 8 4 8 10 0 6 -9 5 -24 -1 -21 -10 -28 -8 -52 14 -26 25 -29 25
-46 10 -17 -15 -18 -15 -18 6 0 12 4 19 10 16 6 -3 10 -2 10 4 0 10 -58 4 -70
-6 -5 -4 -6 -8 -9 -33 0 -5 -6 -10 -12 -10 -5 0 -7 4 -4 10 3 6 -1 7 -9 4 -9
-3 -14 -9 -11 -13 2 -4 -2 -8 -10 -8 -8 0 -11 5 -8 10 4 6 0 8 -10 4 -9 -3
-17 -2 -19 4 -2 5 -26 3 -58 -6 -30 -8 -91 -18 -135 -21 -69 -6 -94 -3 -172
20 -104 29 -182 33 -263 11 -30 -8 -62 -14 -70 -14 -8 0 17 9 55 20 94 25 177
24 261 -3 105 -34 217 -31 369 11 66 18 125 35 130 37 6 2 57 2 115 0 85 -2
124 -9 205 -35z m673 32 c-21 -2 -55 -2 -75 0 -21 2 -4 4 37 4 41 0 58 -2 38
-4z m-2321 -9 c-3 -3 -12 -4 -19 -1 -8 3 -5 6 6 6 11 1 17 -2 13 -5z m250 0
c-3 -3 -12 -4 -19 -1 -8 3 -5 6 6 6 11 1 17 -2 13 -5z m1936 -1 c-7 -2 -21 -2
-30 0 -10 3 -4 5 12 5 17 0 24 -2 18 -5z m-98 -19 c-27 -7 -57 -13 -65 -13
-21 1 70 27 95 27 11 0 -2 -6 -30 -14z m-692 -18 c4 -10 1 -13 -8 -9 -8 3 -12
9 -9 14 7 12 11 11 17 -5z m-56 -2 c-3 -3 -12 -4 -19 -1 -8 3 -5 6 6 6 11 1
17 -2 13 -5z m660 0 c-3 -3 -12 -4 -19 -1 -8 3 -5 6 6 6 11 1 17 -2 13 -5z
m-1590 -10 c-3 -3 -12 -4 -19 -1 -8 3 -5 6 6 6 11 1 17 -2 13 -5z m71 -11
c-10 -2 -26 -2 -35 0 -10 3 -2 5 17 5 19 0 27 -2 18 -5z m1082 -44 c0 -5 -7
-9 -15 -9 -9 0 -15 9 -15 21 0 18 2 19 15 9 8 -7 15 -16 15 -21z m-1412 -16
c-21 -2 -55 -2 -75 0 -21 2 -4 4 37 4 41 0 58 -2 38 -4z m1442 -22 c25 -12 37
-19 27 -16 -10 2 -43 12 -74 21 -79 23 -199 14 -333 -25 -58 -17 -118 -30
-135 -30 -22 1 -16 4 20 10 28 6 73 17 100 26 148 49 310 54 395 14z m703 22
c-18 -2 -48 -2 -65 0 -18 2 -4 4 32 4 36 0 50 -2 33 -4z m-124 -7 c-2 -2 -17
-6 -34 -10 -22 -5 -26 -4 -15 4 14 9 59 15 49 6z m-1404 -16 c13 -6 2 -7 -30
-3 -27 3 -52 7 -54 9 -9 8 65 2 84 -6z m-140 -15 c-27 -8 -57 -14 -65 -14 -24
1 63 27 90 27 14 0 3 -6 -25 -13z m1452 9 c-3 -3 -12 -4 -19 -1 -8 3 -5 6 6 6
11 1 17 -2 13 -5z m-1217 -25 c40 -12 52 -18 30 -15 -29 3 -115 33 -100 35 3
0 34 -9 70 -20z m-493 5 c-3 -3 -12 -4 -19 -1 -8 3 -5 6 6 6 11 1 17 -2 13 -5z
m1468 -9 c92 1 111 -1 80 -8 -50 -11 -221 -3 -255 12 -21 9 -19 10 15 3 22 -4
94 -7 160 -7z m-1997 -2 c-10 -2 -28 -2 -40 0 -13 2 -5 4 17 4 22 1 32 -1 23
-4z m670 0 c-21 -2 -57 -2 -80 0 -24 2 -7 4 37 4 44 0 63 -2 43 -4z m510 -20
c-15 -2 -42 -2 -60 0 -18 2 -6 4 27 4 33 0 48 -2 33 -4z"/>
<path d="M4753 6213 c27 -4 37 -18 17 -25 -6 -2 -1 -9 10 -16 12 -7 20 -8 20
-2 0 5 -4 10 -10 10 -18 0 2 29 23 33 12 2 -3 4 -33 4 -30 0 -43 -2 -27 -4z"/>
<path d="M4860 6206 c0 -2 9 -6 20 -9 11 -3 18 -1 14 4 -5 9 -34 13 -34 5z"/>
<path d="M4815 6190 c-3 -5 -1 -10 4 -10 6 0 11 5 11 10 0 6 -2 10 -4 10 -3 0
-8 -4 -11 -10z"/>
<path d="M4570 6186 c0 -9 30 -14 35 -6 4 6 -3 10 -14 10 -12 0 -21 -2 -21 -4z"/>
<path d="M2794 6015 c-8 -20 2 -45 18 -45 10 0 10 3 -1 9 -8 5 -12 18 -8 30 6
24 -1 29 -9 6z"/>
<path d="M3460 5594 c-229 -39 -340 -69 -367 -100 -31 -34 -29 -60 6 -95 37
-37 64 -37 201 -3 147 37 243 37 390 0 144 -36 246 -38 382 -8 124 28 216 28
315 1 103 -29 217 -29 353 0 112 24 130 23 245 -11 99 -29 200 -26 367 12 175
39 272 40 429 4 109 -25 123 -26 314 -20 319 9 443 28 472 73 15 23 15 28 2
52 -27 49 -70 54 -279 35 -223 -20 -336 -15 -485 22 -157 40 -298 39 -450 0
-152 -40 -252 -45 -330 -16 -92 33 -193 37 -302 11 -117 -27 -186 -26 -303 4
-117 30 -217 32 -325 5 -44 -11 -118 -23 -165 -26 -74 -5 -100 -2 -205 24
-120 31 -218 44 -265 36z m98 -21 c-21 -2 -55 -2 -75 0 -21 2 -4 4 37 4 41 0
58 -2 38 -4z m-203 -24 c-49 -10 -97 -18 -105 -18 -25 1 133 37 165 37 17 0
-10 -8 -60 -19z m272 15 c-3 -3 -12 -4 -19 -1 -8 3 -5 6 6 6 11 1 17 -2 13 -5z
m776 -21 c37 -8 67 -19 67 -23 0 -4 -19 -2 -42 5 -24 6 -56 15 -73 19 -28 6
-29 5 -11 -8 18 -14 18 -15 -3 -13 -11 1 -21 7 -21 14 0 18 -140 17 -213 -2
-73 -19 -119 -18 -52 1 117 33 224 35 348 7z m1072 12 c-88 -17 -116 -17 -50
0 28 7 66 13 85 13 22 0 10 -5 -35 -13z m308 -11 c62 -14 146 -30 187 -34 64
-6 68 -7 25 -8 -49 -2 -232 28 -269 43 -13 6 -17 5 -13 -2 4 -6 -2 -13 -13
-16 -18 -5 -25 3 -21 26 2 12 -67 8 -71 -5 -3 -7 -7 -6 -11 5 -10 25 52 22
186 -9z m-2116 10 c-3 -3 -12 -4 -19 -1 -8 3 -5 6 6 6 11 1 17 -2 13 -5z
m1338 -27 c49 -14 96 -21 160 -20 85 0 87 -1 35 -8 -64 -10 -109 -5 -204 23
-87 25 -187 25 -296 -2 -88 -21 -143 -23 -195 -10 -20 6 -10 7 30 3 38 -3 90
2 140 13 172 37 211 37 330 1z m-1205 -3 c47 -10 99 -14 140 -10 60 5 62 4 20
-5 -51 -11 -138 -5 -202 15 -59 19 -47 19 42 0z m1535 1 c-22 -8 -49 -13 -60
-13 -11 0 0 6 25 13 59 17 87 17 35 0z m415 -5 c0 -5 -2 -10 -4 -10 -3 0 -8 5
-11 10 -3 6 -1 10 4 10 6 0 11 -4 11 -10z m727 4 c-3 -3 -12 -4 -19 -1 -8 3
-5 6 6 6 11 1 17 -2 13 -5z m-3284 -11 c-7 -2 -19 -2 -25 0 -7 3 -2 5 12 5 14
0 19 -2 13 -5z m3120 0 c-7 -2 -19 -2 -25 0 -7 3 -2 5 12 5 14 0 19 -2 13 -5z
m-115 -10 c-16 -2 -40 -2 -55 0 -16 2 -3 4 27 4 30 0 43 -2 28 -4z m-2596 -61
c10 -4 -39 -7 -108 -7 -69 0 -115 3 -102 7 31 8 188 8 210 0z m2108 -1 c0 -3
-61 -6 -136 -6 -74 0 -125 3 -112 7 29 8 248 8 248 -1z m-1385 -10 c11 -5 -16
-6 -60 -4 -104 6 -119 11 -30 12 39 0 79 -4 90 -8z m-668 -7 c-3 -3 -12 -4
-19 -1 -8 3 -5 6 6 6 11 1 17 -2 13 -5z m458 -10 c-27 -7 -57 -13 -65 -13 -21
1 70 27 95 27 11 0 -2 -6 -30 -14z m813 8 c7 -5 -16 -7 -50 -5 -91 6 -103 11
-28 12 36 0 71 -3 78 -7z m482 -2 c-34 -11 -60 -11 -35 0 11 5 29 8 40 8 16 0
15 -2 -5 -8z m375 0 l20 -9 -20 1 c-11 0 -31 4 -45 8 l-25 8 25 0 c14 0 34 -3
45 -8z m-2472 -7 c-7 -2 -19 -2 -25 0 -7 3 -2 5 12 5 14 0 19 -2 13 -5z m384
1 c-3 -3 -12 -4 -19 -1 -8 3 -5 6 6 6 11 1 17 -2 13 -5z m1080 0 c-3 -3 -12
-4 -19 -1 -8 3 -5 6 6 6 11 1 17 -2 13 -5z m-1040 -10 c-3 -3 -12 -4 -19 -1
-8 3 -5 6 6 6 11 1 17 -2 13 -5z m680 0 c-3 -3 -12 -4 -19 -1 -8 3 -5 6 6 6
11 1 17 -2 13 -5z m316 -1 c-7 -2 -19 -2 -25 0 -7 3 -2 5 12 5 14 0 19 -2 13
-5z m244 1 c-3 -3 -12 -4 -19 -1 -8 3 -5 6 6 6 11 1 17 -2 13 -5z m860 0 c-3
-3 -12 -4 -19 -1 -8 3 -5 6 6 6 11 1 17 -2 13 -5z m-2680 -10 c-3 -3 -12 -4
-19 -1 -8 3 -5 6 6 6 11 1 17 -2 13 -5z m61 -1 c-10 -2 -26 -2 -35 0 -10 3 -2
5 17 5 19 0 27 -2 18 -5z m585 0 c-7 -2 -21 -2 -30 0 -10 3 -4 5 12 5 17 0 24
-2 18 -5z m192 -3 c-16 -4 -64 -7 -105 -7 l-75 1 80 6 c44 3 91 7 105 7 22 1
21 0 -5 -7z m478 3 c-7 -2 -21 -2 -30 0 -10 3 -4 5 12 5 17 0 24 -2 18 -5z
m210 0 c-7 -2 -21 -2 -30 0 -10 3 -4 5 12 5 17 0 24 -2 18 -5z m614 1 c-3 -3
-12 -4 -19 -1 -8 3 -5 6 6 6 11 1 17 -2 13 -5z m601 -1 c-10 -2 -26 -2 -35 0
-10 3 -2 5 17 5 19 0 27 -2 18 -5z m310 0 c-16 -2 -40 -2 -55 0 -16 2 -3 4 27
4 30 0 43 -2 28 -4z m-1610 -10 c-21 -2 -55 -2 -75 0 -21 2 -4 4 37 4 41 0 58
-2 38 -4z m455 0 c-7 -2 -19 -2 -25 0 -7 3 -2 5 12 5 14 0 19 -2 13 -5z m190
0 c-7 -2 -19 -2 -25 0 -7 3 -2 5 12 5 14 0 19 -2 13 -5z m805 0 c-21 -2 -57
-2 -80 0 -24 2 -7 4 37 4 44 0 63 -2 43 -4z m-885 -10 c-18 -2 -48 -2 -65 0
-18 2 -4 4 32 4 36 0 50 -2 33 -4z"/>
<path d="M2794 5375 c-8 -20 2 -45 18 -45 10 0 10 3 -1 9 -8 5 -12 18 -8 30 6
24 -1 29 -9 6z"/>
<path d="M3390 4974 c-61 -12 -227 -57 -258 -70 -19 -8 -41 -22 -48 -32 -19
-24 -17 -66 4 -91 28 -35 75 -36 206 -2 146 38 212 39 342 5 136 -35 202 -39
305 -20 109 20 161 20 265 -1 80 -17 89 -17 181 0 54 10 127 24 163 32 101 24
200 20 320 -10 133 -34 220 -40 340 -25 52 6 168 15 257 19 175 9 196 15 191
60 -4 36 -51 57 -173 77 -98 16 -153 15 -375 -2 -64 -5 -94 -1 -197 25 -164
42 -249 42 -452 -1 -145 -30 -158 -31 -220 -19 -186 36 -179 35 -254 21 -110
-22 -228 -19 -322 8 -77 22 -223 36 -275 26z m43 -21 c-7 -2 -21 -2 -30 0 -10
3 -4 5 12 5 17 0 24 -2 18 -5z m1304 0 c-20 -2 -52 -2 -70 0 -17 2 0 4 38 4
39 0 53 -2 32 -4z m-119 -10 c-10 -2 -26 -2 -35 0 -10 3 -2 5 17 5 19 0 27 -2
18 -5z m232 -3 c20 -6 21 -8 5 -8 -11 0 -33 4 -50 8 -27 7 -27 8 -5 8 14 0 36
-4 50 -8z m-297 -7 c-7 -2 -19 -2 -25 0 -7 3 -2 5 12 5 14 0 19 -2 13 -5z
m-420 -10 c-7 -2 -19 -2 -25 0 -7 3 -2 5 12 5 14 0 19 -2 13 -5z m374 1 c-3
-3 -12 -4 -19 -1 -8 3 -5 6 6 6 11 1 17 -2 13 -5z m-44 -11 c-7 -2 -19 -2 -25
0 -7 3 -2 5 12 5 14 0 19 -2 13 -5z m474 1 c-3 -3 -12 -4 -19 -1 -8 3 -5 6 6
6 11 1 17 -2 13 -5z m-720 -10 c-3 -3 -12 -4 -19 -1 -8 3 -5 6 6 6 11 1 17 -2
13 -5z m196 -1 c-7 -2 -19 -2 -25 0 -7 3 -2 5 12 5 14 0 19 -2 13 -5z m834 1
c-3 -3 -12 -4 -19 -1 -8 3 -5 6 6 6 11 1 17 -2 13 -5z m-1390 -10 c-3 -3 -12
-4 -19 -1 -8 3 -5 6 6 6 11 1 17 -2 13 -5z m406 -1 c-7 -2 -19 -2 -25 0 -7 3
-2 5 12 5 14 0 19 -2 13 -5z m100 0 c-7 -2 -21 -2 -30 0 -10 3 -4 5 12 5 17 0
24 -2 18 -5z m675 0 c-10 -2 -26 -2 -35 0 -10 3 -2 5 17 5 19 0 27 -2 18 -5z
m129 1 c-3 -3 -12 -4 -19 -1 -8 3 -5 6 6 6 11 1 17 -2 13 -5z m-439 -61 c-15
-2 -42 -2 -60 0 -18 2 -6 4 27 4 33 0 48 -2 33 -4z m-125 -10 c-7 -2 -19 -2
-25 0 -7 3 -2 5 12 5 14 0 19 -2 13 -5z m204 1 c-3 -3 -12 -4 -19 -1 -8 3 -5
6 6 6 11 1 17 -2 13 -5z m-254 -11 c-7 -2 -19 -2 -25 0 -7 3 -2 5 12 5 14 0
19 -2 13 -5z m294 1 c-3 -3 -12 -4 -19 -1 -8 3 -5 6 6 6 11 1 17 -2 13 -5z
m-739 -11 c-16 -2 -40 -2 -55 0 -16 2 -3 4 27 4 30 0 43 -2 28 -4z m399 1 c-3
-3 -12 -4 -19 -1 -8 3 -5 6 6 6 11 1 17 -2 13 -5z m380 0 c-3 -3 -12 -4 -19
-1 -8 3 -5 6 6 6 11 1 17 -2 13 -5z m-420 -10 c-3 -3 -12 -4 -19 -1 -8 3 -5 6
6 6 11 1 17 -2 13 -5z m-680 -20 c-3 -3 -12 -4 -19 -1 -8 3 -5 6 6 6 11 1 17
-2 13 -5z m116 -1 c-7 -2 -19 -2 -25 0 -7 3 -2 5 12 5 14 0 19 -2 13 -5z m370
0 c-7 -2 -19 -2 -25 0 -7 3 -2 5 12 5 14 0 19 -2 13 -5z"/>
<path d="M2797 4763 c-4 -3 -7 -11 -7 -17 0 -6 4 -5 9 2 6 10 33 13 109 10 55
-2 98 0 95 5 -5 9 -197 10 -206 0z"/>
<path d="M6148 4763 c7 -3 16 -2 19 1 4 3 -2 6 -13 5 -11 0 -14 -3 -6 -6z"/>
<path d="M6198 4763 c12 -2 30 -2 40 0 9 3 -1 5 -23 4 -22 0 -30 -2 -17 -4z"/>
<path d="M6328 4763 c23 -2 59 -2 80 0 20 2 1 4 -43 4 -44 0 -61 -2 -37 -4z"/>
<path d="M6744 4763 c211 -3 294 -7 305 -16 14 -11 14 -10 2 6 -12 16 -38 17
-305 15 l-291 -3 289 -2z"/>
<path d="M2793 4720 c3 -12 25 -15 113 -16 l109 0 -105 3 c-67 3 -107 8 -113
16 -6 9 -7 8 -4 -3z"/>
<path d="M6730 4710 l-315 -5 312 -3 c200 -1 314 2 318 8 3 6 5 9 3 8 -2 -2
-145 -5 -318 -8z"/>
<path d="M6378 4703 c7 -3 16 -2 19 1 4 3 -2 6 -13 5 -11 0 -14 -3 -6 -6z"/>
<path d="M2789 4124 c-9 -11 -10 -20 -2 -32 9 -16 162 -17 2127 -17 l2116 0
-2115 2 c-1397 2 -2116 6 -2116 13 -1 6 -2 16 -3 23 -1 9 242 13 1169 17
l1170 5 -1166 3 c-1054 2 -1168 0 -1180 -14z"/>
<path d="M5243 4133 c9 -2 23 -2 30 0 6 3 -1 5 -18 5 -16 0 -22 -2 -12 -5z"/>
<path d="M7042 4126 c7 -8 15 -12 17 -11 5 6 -10 25 -20 25 -5 0 -4 -6 3 -14z"/>
<path d="M2791 3496 c-9 -11 -10 -20 -1 -35 l11 -21 962 2 962 3 -963 2 -963
3 3 23 3 22 1805 0 1805 0 3 -22 c2 -14 -3 -23 -15 -27 -15 -4 -15 -5 2 -3 23
3 32 32 15 52 -19 22 -3611 22 -3629 1z"/>
<path d="M7542 3300 c0 -19 2 -27 5 -17 2 9 2 25 0 35 -3 9 -5 1 -5 -18z"/>
<path d="M7543 3170 c0 -30 2 -43 4 -27 2 15 2 39 0 55 -2 15 -4 2 -4 -28z"/>
<path d="M2352 2860 c0 -19 2 -27 5 -17 2 9 2 25 0 35 -3 9 -5 1 -5 -18z"/>
<path d="M7541 2829 c-2 -78 -69 -168 -153 -204 -18 -8 -26 -14 -17 -15 8 0
36 13 62 30 72 45 129 149 114 207 -3 10 -5 2 -6 -18z"/>
<path d="M2360 2812 c0 -24 40 -91 76 -126 40 -39 110 -76 140 -75 15 1 13 2
-6 8 -85 26 -155 86 -189 161 -11 25 -21 39 -21 32z"/>
<path d="M6808 2633 c6 -2 18 -2 25 0 6 3 1 5 -13 5 -14 0 -19 -2 -12 -5z"/>
<path d="M6878 2603 c90 -2 234 -2 320 0 86 1 13 3 -163 3 -176 0 -247 -2
-157 -3z"/>
</g>
</svg>
